<svg xmlns="http://www.w3.org/2000/svg" viewBox="0 0 1280 1110" role="img" aria-label="the pre-flight cost gate decision: if the gate is off allow, else run the guard and estimate; deny over-budget; deny unpinned in bypass or strict; otherwise ask with the estimate"><style>
    .title      { font: 700 13px -apple-system, BlinkMacSystemFont, "Segoe UI", system-ui, sans-serif;
                  fill: #c4b5fd; letter-spacing: 0.09em; text-transform: uppercase; }
    .h1         { font: 700 20px -apple-system, system-ui, sans-serif; fill: #f5f3ff; letter-spacing: 0.14em; }
    .node-label { font: 600 13.5px ui-monospace, SFMono-Regular, Menlo, monospace; fill: #faf5ff; }
    .node-sub   { font: 500 10.5px -apple-system, system-ui, sans-serif; fill: #a78bbf; }
    .edge-label { font: 600 10px -apple-system, system-ui, sans-serif; fill: #f5f3ff; }
    .legend     { font: 500 12px -apple-system, system-ui, sans-serif; fill: #a78bbf; }
    .legend-h   { font: 700 12px -apple-system, system-ui, sans-serif; fill: #e9d5ff; letter-spacing: 0.06em; text-transform: uppercase; }
    .footer     { font: 500 10px ui-monospace, Menlo, monospace; fill: #6d5a8c; }

    @media (prefers-color-scheme: light) {
      .title      { fill: #6d28d9; }
      .h1         { fill: #4c1d95; }
      .node-label { fill: #2e1065; }
      .node-sub   { fill: #6d28d9; }
      .edge-label { fill: #2e1065; }
      .legend     { fill: #6d28d9; }
      .legend-h   { fill: #5b21b6; }
      .footer     { fill: #7c6aa0; }
    }

    .card-title { font: 600 14px ui-monospace, SFMono-Regular, Menlo, monospace; fill: #faf5ff; }
    .card-sub   { font: 500 11px -apple-system, system-ui, sans-serif; fill: #b9a7d6; }
    .card-step  { font: 700 11px ui-monospace, Menlo, monospace; fill: #c4b5fd; letter-spacing: 0.08em; }
    .diamond-t  { font: 700 13px -apple-system, system-ui, sans-serif; fill: #faf5ff; }
    .lane       { font: 700 13px ui-monospace, SFMono-Regular, Menlo, monospace; fill: #faf5ff; }
    .lane-sub   { font: 500 10.5px -apple-system, system-ui, sans-serif; fill: #b9a7d6; }
    .note       { font: 500 12px -apple-system, system-ui, sans-serif; fill: #f5f3ff; }

    @media (prefers-color-scheme: light) {
      .card-title { fill: #2e1065; }
      .card-sub   { fill: #6d28d9; }
      .card-step  { fill: #6d28d9; }
      .diamond-t  { fill: #2e1065; }
      .lane       { fill: #2e1065; }
      .lane-sub   { fill: #6d28d9; }
      .note       { fill: #2e1065; }
    }
</style><defs><radialGradient id="bg-canvas" cx="50%" cy="0%" r="120%"><stop offset="0%" stop-color="#1d1033"/><stop offset="100%" stop-color="#080510"/></radialGradient><marker id="arrow-a78bfa" viewBox="0 0 10 10" refX="9" refY="5" markerWidth="7" markerHeight="7" orient="auto-start-reverse"><path d="M0,0 L10,5 L0,10 z" fill="#a78bfa"/></marker><marker id="arrow-e879f9" viewBox="0 0 10 10" refX="9" refY="5" markerWidth="7" markerHeight="7" orient="auto-start-reverse"><path d="M0,0 L10,5 L0,10 z" fill="#e879f9"/></marker><marker id="arrow-f472b6" viewBox="0 0 10 10" refX="9" refY="5" markerWidth="7" markerHeight="7" orient="auto-start-reverse"><path d="M0,0 L10,5 L0,10 z" fill="#f472b6"/></marker><marker id="arrow-22d3ee" viewBox="0 0 10 10" refX="9" refY="5" markerWidth="7" markerHeight="7" orient="auto-start-reverse"><path d="M0,0 L10,5 L0,10 z" fill="#22d3ee"/></marker><marker id="arrow-c4b5fd" viewBox="0 0 10 10" refX="9" refY="5" markerWidth="7" markerHeight="7" orient="auto-start-reverse"><path d="M0,0 L10,5 L0,10 z" fill="#c4b5fd"/></marker><marker id="arrow-fbbf24" viewBox="0 0 10 10" refX="9" refY="5" markerWidth="7" markerHeight="7" orient="auto-start-reverse"><path d="M0,0 L10,5 L0,10 z" fill="#fbbf24"/></marker><marker id="arrow-34d399" viewBox="0 0 10 10" refX="9" refY="5" markerWidth="7" markerHeight="7" orient="auto-start-reverse"><path d="M0,0 L10,5 L0,10 z" fill="#34d399"/></marker><marker id="arrow-fb7185" viewBox="0 0 10 10" refX="9" refY="5" markerWidth="7" markerHeight="7" orient="auto-start-reverse"><path d="M0,0 L10,5 L0,10 z" fill="#fb7185"/></marker><marker id="arrow-d97757" viewBox="0 0 10 10" refX="9" refY="5" markerWidth="7" markerHeight="7" orient="auto-start-reverse"><path d="M0,0 L10,5 L0,10 z" fill="#d97757"/></marker><marker id="arrow-94a3b8" viewBox="0 0 10 10" refX="9" refY="5" markerWidth="7" markerHeight="7" orient="auto-start-reverse"><path d="M0,0 L10,5 L0,10 z" fill="#94a3b8"/></marker></defs><rect width="1280" height="1110" fill="url(#bg-canvas)"/><text x="50" y="52" class="h1">THE PRE-FLIGHT COST GATE</text><text x="50" y="78" class="legend">ULTRACOST_GATE=off → allow · over budget → deny · unpinned in bypass / =strict → deny · otherwise → ask with the estimate</text><g class="card"><rect x="345" y="96" width="350" height="68" rx="12" fill="rgba(20, 9, 36, 0.62)" stroke="#d97757" stroke-width="1.5" stroke-opacity="0.6"/><g transform="translate(359 118.0) scale(1.0000)" fill="none" stroke="#d97757" stroke-width="2" stroke-linecap="round" stroke-linejoin="round"><polygon points="5 3 19 12 5 21 5 3"/></g><text x="520.0" y="126.0" class="card-title" text-anchor="middle">Workflow launch</text><text x="520.0" y="143.0" class="card-sub" text-anchor="middle">PreToolUse fires</text><g transform="translate(681, 110)"><circle r="4" fill="#d97757"><animate attributeName="r" values="3;6.5;3" dur="2.6s" repeatCount="indefinite"/><animate attributeName="opacity" values="1;0.4;1" dur="2.6s" repeatCount="indefinite"/></circle><circle r="3" fill="#d97757"/></g></g><g class="decision"><polygon points="520,166 680,250 520,334 360,250" fill="rgba(20, 9, 36, 0.62)" stroke="#fbbf24" stroke-width="1.5" stroke-opacity="0.7"/><text x="520" y="245.5" class="diamond-t" text-anchor="middle">ULTRACOST_GATE =</text><text x="520" y="262.5" class="diamond-t" text-anchor="middle">off?</text></g><path d="M 520 164 L 520 166" fill="none" stroke="#d97757" stroke-width="2" stroke-opacity="0.5" stroke-linecap="round"  marker-end="url(#arrow-d97757)"/><path d="M 520 164 L 520 166" fill="none" stroke="#d97757" stroke-width="2" stroke-linecap="round" stroke-dasharray="2 14" stroke-opacity="0.95"><animate attributeName="stroke-dashoffset" values="0;-32" dur="2.4s" repeatCount="indefinite"/></path><g class="card"><rect x="950" y="214" width="250" height="72" rx="12" fill="rgba(20, 9, 36, 0.62)" stroke="#34d399" stroke-width="1.5" stroke-opacity="0.6"/><g transform="translate(964 238.0) scale(1.0000)" fill="none" stroke="#34d399" stroke-width="2" stroke-linecap="round" stroke-linejoin="round"><path d="M22 11.08V12a10 10 0 1 1-5.93-9.14"/><polyline points="22 4 12 14.01 9 11.01"/></g><text x="1075.0" y="246.0" class="card-title" text-anchor="middle">allow</text><text x="1075.0" y="263.0" class="card-sub" text-anchor="middle">gate disabled</text><g transform="translate(1186, 228)"><circle r="4" fill="#34d399"><animate attributeName="r" values="3;6.5;3" dur="2.6s" repeatCount="indefinite"/><animate attributeName="opacity" values="1;0.4;1" dur="2.6s" repeatCount="indefinite"/></circle><circle r="3" fill="#34d399"/></g></g><path d="M 680 250 L 950 250" fill="none" stroke="#34d399" stroke-width="2" stroke-opacity="0.5" stroke-linecap="round"  marker-end="url(#arrow-34d399)"/><path d="M 680 250 L 950 250" fill="none" stroke="#34d399" stroke-width="2" stroke-linecap="round" stroke-dasharray="2 14" stroke-opacity="0.95"><animate attributeName="stroke-dashoffset" values="0;-32" dur="2.4s" repeatCount="indefinite"/></path><g transform="translate(815.0 237)"><rect x="-27.0" y="-11" width="54.0" height="22" rx="6" fill="rgba(10, 6, 18, 0.88)" stroke="#34d399" stroke-opacity="0.45"/><text x="0" y="4" class="edge-label" text-anchor="middle">yes</text></g><g class="card"><rect x="345" y="362" width="350" height="70" rx="12" fill="rgba(20, 9, 36, 0.62)" stroke="#22d3ee" stroke-width="1.5" stroke-opacity="0.6"/><g transform="translate(359 385.0) scale(1.0000)" fill="none" stroke="#22d3ee" stroke-width="2" stroke-linecap="round" stroke-linejoin="round"><polyline points="22 12 18 12 15 21 9 3 6 12 2 12"/></g><text x="520.0" y="393.0" class="card-title" text-anchor="middle">run the guard + estimate</text><text x="520.0" y="410.0" class="card-sub" text-anchor="middle">calibrated, offline</text><g transform="translate(681, 376)"><circle r="4" fill="#22d3ee"><animate attributeName="r" values="3;6.5;3" dur="2.6s" repeatCount="indefinite"/><animate attributeName="opacity" values="1;0.4;1" dur="2.6s" repeatCount="indefinite"/></circle><circle r="3" fill="#22d3ee"/></g></g><path d="M 520 334 L 520 362" fill="none" stroke="#fbbf24" stroke-width="2" stroke-opacity="0.5" stroke-linecap="round"  marker-end="url(#arrow-fbbf24)"/><path d="M 520 334 L 520 362" fill="none" stroke="#fbbf24" stroke-width="2" stroke-linecap="round" stroke-dasharray="2 14" stroke-opacity="0.95"><animate attributeName="stroke-dashoffset" values="0;-32" dur="2.4s" repeatCount="indefinite"/></path><g transform="translate(520 348.0)"><rect x="-27.0" y="-11" width="54.0" height="22" rx="6" fill="rgba(10, 6, 18, 0.88)" stroke="#fbbf24" stroke-opacity="0.45"/><text x="0" y="4" class="edge-label" text-anchor="middle">no</text></g><g class="decision"><polygon points="520,470 690,560 520,650 350,560" fill="rgba(20, 9, 36, 0.62)" stroke="#fbbf24" stroke-width="1.5" stroke-opacity="0.7"/><text x="520" y="555.5" class="diamond-t" text-anchor="middle">over budget.perRun /</text><text x="520" y="572.5" class="diamond-t" text-anchor="middle">perDay?</text></g><path d="M 520 432 L 520 470" fill="none" stroke="#22d3ee" stroke-width="2" stroke-opacity="0.5" stroke-linecap="round"  marker-end="url(#arrow-22d3ee)"/><path d="M 520 432 L 520 470" fill="none" stroke="#22d3ee" stroke-width="2" stroke-linecap="round" stroke-dasharray="2 14" stroke-opacity="0.95"><animate attributeName="stroke-dashoffset" values="0;-32" dur="2.4s" repeatCount="indefinite"/></path><g class="card"><rect x="950" y="520" width="270" height="84" rx="12" fill="rgba(20, 9, 36, 0.62)" stroke="#fb7185" stroke-width="1.5" stroke-opacity="0.6"/><g transform="translate(964 550.0) scale(1.0000)" fill="none" stroke="#fb7185" stroke-width="2" stroke-linecap="round" stroke-linejoin="round"><path d="M10.29 3.86L1.82 18a2 2 0 0 0 1.71 3h16.94a2 2 0 0 0 1.71-3L13.71 3.86a2 2 0 0 0-3.42 0z"/><line x1="12" y1="9" x2="12" y2="13"/><line x1="12" y1="17" x2="12.01" y2="17"/></g><text x="1085.0" y="549.5" class="card-title" text-anchor="middle">deny</text><text x="1085.0" y="566.5" class="card-sub" text-anchor="middle">hard budget cap, or unpinned in</text><text x="1085.0" y="583.5" class="card-sub" text-anchor="middle">bypass / =strict</text><g transform="translate(1206, 534)"><circle r="4" fill="#fb7185"><animate attributeName="r" values="3;6.5;3" dur="2.6s" repeatCount="indefinite"/><animate attributeName="opacity" values="1;0.4;1" dur="2.6s" repeatCount="indefinite"/></circle><circle r="3" fill="#fb7185"/></g></g><path d="M 690 560 C 800 560, 860 562, 950 562" fill="none" stroke="#fb7185" stroke-width="2" stroke-opacity="0.5" stroke-linecap="round"  marker-end="url(#arrow-fb7185)"/><path d="M 690 560 C 800 560, 860 562, 950 562" fill="none" stroke="#fb7185" stroke-width="2" stroke-linecap="round" stroke-dasharray="2 14" stroke-opacity="0.95"><animate attributeName="stroke-dashoffset" values="0;-32" dur="2.2s" repeatCount="indefinite"/></path><g transform="translate(800 548)"><rect x="-64.1" y="-11" width="128.2" height="22" rx="6" fill="rgba(10, 6, 18, 0.88)" stroke="#fb7185" stroke-opacity="0.45"/><text x="0" y="4" class="edge-label" text-anchor="middle">yes (unless =ask)</text></g><g class="decision"><polygon points="520,722 705,820 520,918 335,820" fill="rgba(20, 9, 36, 0.62)" stroke="#fbbf24" stroke-width="1.5" stroke-opacity="0.7"/><text x="520" y="815.5" class="diamond-t" text-anchor="middle">any stage unpinned /</text><text x="520" y="832.5" class="diamond-t" text-anchor="middle">banned / inherit?</text></g><path d="M 520 650 L 520 722" fill="none" stroke="#fbbf24" stroke-width="2" stroke-opacity="0.5" stroke-linecap="round"  marker-end="url(#arrow-fbbf24)"/><path d="M 520 650 L 520 722" fill="none" stroke="#fbbf24" stroke-width="2" stroke-linecap="round" stroke-dasharray="2 14" stroke-opacity="0.95"><animate attributeName="stroke-dashoffset" values="0;-32" dur="2.4s" repeatCount="indefinite"/></path><g transform="translate(520 686.0)"><rect x="-27.0" y="-11" width="54.0" height="22" rx="6" fill="rgba(10, 6, 18, 0.88)" stroke="#fbbf24" stroke-opacity="0.45"/><text x="0" y="4" class="edge-label" text-anchor="middle">no</text></g><path d="M 705 820 C 820 820, 980 700, 1010 604" fill="none" stroke="#fb7185" stroke-width="2" stroke-opacity="0.5" stroke-linecap="round"  marker-end="url(#arrow-fb7185)"/><path d="M 705 820 C 820 820, 980 700, 1010 604" fill="none" stroke="#fb7185" stroke-width="2" stroke-linecap="round" stroke-dasharray="2 14" stroke-opacity="0.95"><animate attributeName="stroke-dashoffset" values="0;-32" dur="2.6s" repeatCount="indefinite"/></path><g transform="translate(880 760)"><rect x="-60.8" y="-11" width="121.6" height="22" rx="6" fill="rgba(10, 6, 18, 0.88)" stroke="#fb7185" stroke-opacity="0.45"/><text x="0" y="4" class="edge-label" text-anchor="middle">bypass / =strict</text></g><g class="card"><rect x="70" y="880" width="300" height="84" rx="12" fill="rgba(20, 9, 36, 0.62)" stroke="#fbbf24" stroke-width="1.5" stroke-opacity="0.6"/><g transform="translate(84 910.0) scale(1.0000)" fill="none" stroke="#fbbf24" stroke-width="2" stroke-linecap="round" stroke-linejoin="round"><path d="M10.29 3.86L1.82 18a2 2 0 0 0 1.71 3h16.94a2 2 0 0 0 1.71-3L13.71 3.86a2 2 0 0 0-3.42 0z"/><line x1="12" y1="9" x2="12" y2="13"/><line x1="12" y1="17" x2="12.01" y2="17"/></g><text x="220.0" y="918.0" class="card-title" text-anchor="middle">ask + ⚠ warning</text><text x="220.0" y="935.0" class="card-sub" text-anchor="middle">+ the estimate (interactive)</text><g transform="translate(356, 894)"><circle r="4" fill="#fbbf24"><animate attributeName="r" values="3;6.5;3" dur="2.6s" repeatCount="indefinite"/><animate attributeName="opacity" values="1;0.4;1" dur="2.6s" repeatCount="indefinite"/></circle><circle r="3" fill="#fbbf24"/></g></g><path d="M 335 820 C 360 820, 240 844, 220 880" fill="none" stroke="#fbbf24" stroke-width="2" stroke-opacity="0.5" stroke-linecap="round"  marker-end="url(#arrow-fbbf24)"/><path d="M 335 820 C 360 820, 240 844, 220 880" fill="none" stroke="#fbbf24" stroke-width="2" stroke-linecap="round" stroke-dasharray="2 14" stroke-opacity="0.95"><animate attributeName="stroke-dashoffset" values="0;-32" dur="2.6s" repeatCount="indefinite"/></path><g transform="translate(330 832)"><rect x="-44.3" y="-11" width="88.6" height="22" rx="6" fill="rgba(10, 6, 18, 0.88)" stroke="#fbbf24" stroke-opacity="0.45"/><text x="0" y="4" class="edge-label" text-anchor="middle">interactive</text></g><g class="card"><rect x="360" y="980" width="320" height="72" rx="12" fill="rgba(20, 9, 36, 0.62)" stroke="#34d399" stroke-width="1.5" stroke-opacity="0.6"/><g transform="translate(374 1004.0) scale(1.0000)" fill="none" stroke="#34d399" stroke-width="2" stroke-linecap="round" stroke-linejoin="round"><path d="M18 3a3 3 0 0 0-3 3v12a3 3 0 1 0 3-3H6a3 3 0 1 0 3 3V6a3 3 0 1 0-3 3h12a3 3 0 0 0 0-6z"/></g><text x="520.0" y="1012.0" class="card-title" text-anchor="middle">ask + estimate</text><text x="520.0" y="1029.0" class="card-sub" text-anchor="middle">all stages pinned</text><g transform="translate(666, 994)"><circle r="4" fill="#34d399"><animate attributeName="r" values="3;6.5;3" dur="2.6s" repeatCount="indefinite"/><animate attributeName="opacity" values="1;0.4;1" dur="2.6s" repeatCount="indefinite"/></circle><circle r="3" fill="#34d399"/></g></g><path d="M 520 918 L 520 980" fill="none" stroke="#34d399" stroke-width="2" stroke-opacity="0.5" stroke-linecap="round"  marker-end="url(#arrow-34d399)"/><path d="M 520 918 L 520 980" fill="none" stroke="#34d399" stroke-width="2" stroke-linecap="round" stroke-dasharray="2 14" stroke-opacity="0.95"><animate attributeName="stroke-dashoffset" values="0;-32" dur="2.4s" repeatCount="indefinite"/></path><g transform="translate(520 949.0)"><rect x="-27.0" y="-11" width="54.0" height="22" rx="6" fill="rgba(10, 6, 18, 0.88)" stroke="#34d399" stroke-opacity="0.45"/><text x="0" y="4" class="edge-label" text-anchor="middle">no</text></g><text x="1264" y="1102" text-anchor="end" class="footer">assets/diagram-gate-decision.svg · regenerate via scripts/generate-doc-diagrams.py</text></svg>
