<svg xmlns="http://www.w3.org/2000/svg" viewBox="0 0 1240 470" role="img" aria-label="release pipeline: a vX.Y.Z tag runs CI tests, which cuts a GitHub Release and publishes to npm"><style>
    .title      { font: 700 13px -apple-system, BlinkMacSystemFont, "Segoe UI", system-ui, sans-serif;
                  fill: #c4b5fd; letter-spacing: 0.09em; text-transform: uppercase; }
    .h1         { font: 700 20px -apple-system, system-ui, sans-serif; fill: #f5f3ff; letter-spacing: 0.14em; }
    .node-label { font: 600 13.5px ui-monospace, SFMono-Regular, Menlo, monospace; fill: #faf5ff; }
    .node-sub   { font: 500 10.5px -apple-system, system-ui, sans-serif; fill: #a78bbf; }
    .edge-label { font: 600 10px -apple-system, system-ui, sans-serif; fill: #f5f3ff; }
    .legend     { font: 500 12px -apple-system, system-ui, sans-serif; fill: #a78bbf; }
    .legend-h   { font: 700 12px -apple-system, system-ui, sans-serif; fill: #e9d5ff; letter-spacing: 0.06em; text-transform: uppercase; }
    .footer     { font: 500 10px ui-monospace, Menlo, monospace; fill: #6d5a8c; }

    @media (prefers-color-scheme: light) {
      .title      { fill: #6d28d9; }
      .h1         { fill: #4c1d95; }
      .node-label { fill: #2e1065; }
      .node-sub   { fill: #6d28d9; }
      .edge-label { fill: #2e1065; }
      .legend     { fill: #6d28d9; }
      .legend-h   { fill: #5b21b6; }
      .footer     { fill: #7c6aa0; }
    }

    .card-title { font: 600 14px ui-monospace, SFMono-Regular, Menlo, monospace; fill: #faf5ff; }
    .card-sub   { font: 500 11px -apple-system, system-ui, sans-serif; fill: #b9a7d6; }
    .card-step  { font: 700 11px ui-monospace, Menlo, monospace; fill: #c4b5fd; letter-spacing: 0.08em; }
    .diamond-t  { font: 700 13px -apple-system, system-ui, sans-serif; fill: #faf5ff; }
    .lane       { font: 700 13px ui-monospace, SFMono-Regular, Menlo, monospace; fill: #faf5ff; }
    .lane-sub   { font: 500 10.5px -apple-system, system-ui, sans-serif; fill: #b9a7d6; }
    .note       { font: 500 12px -apple-system, system-ui, sans-serif; fill: #f5f3ff; }

    @media (prefers-color-scheme: light) {
      .card-title { fill: #2e1065; }
      .card-sub   { fill: #6d28d9; }
      .card-step  { fill: #6d28d9; }
      .diamond-t  { fill: #2e1065; }
      .lane       { fill: #2e1065; }
      .lane-sub   { fill: #6d28d9; }
      .note       { fill: #2e1065; }
    }
</style><defs><radialGradient id="bg-canvas" cx="50%" cy="0%" r="120%"><stop offset="0%" stop-color="#1d1033"/><stop offset="100%" stop-color="#080510"/></radialGradient><marker id="arrow-a78bfa" viewBox="0 0 10 10" refX="9" refY="5" markerWidth="7" markerHeight="7" orient="auto-start-reverse"><path d="M0,0 L10,5 L0,10 z" fill="#a78bfa"/></marker><marker id="arrow-e879f9" viewBox="0 0 10 10" refX="9" refY="5" markerWidth="7" markerHeight="7" orient="auto-start-reverse"><path d="M0,0 L10,5 L0,10 z" fill="#e879f9"/></marker><marker id="arrow-f472b6" viewBox="0 0 10 10" refX="9" refY="5" markerWidth="7" markerHeight="7" orient="auto-start-reverse"><path d="M0,0 L10,5 L0,10 z" fill="#f472b6"/></marker><marker id="arrow-22d3ee" viewBox="0 0 10 10" refX="9" refY="5" markerWidth="7" markerHeight="7" orient="auto-start-reverse"><path d="M0,0 L10,5 L0,10 z" fill="#22d3ee"/></marker><marker id="arrow-c4b5fd" viewBox="0 0 10 10" refX="9" refY="5" markerWidth="7" markerHeight="7" orient="auto-start-reverse"><path d="M0,0 L10,5 L0,10 z" fill="#c4b5fd"/></marker><marker id="arrow-fbbf24" viewBox="0 0 10 10" refX="9" refY="5" markerWidth="7" markerHeight="7" orient="auto-start-reverse"><path d="M0,0 L10,5 L0,10 z" fill="#fbbf24"/></marker><marker id="arrow-34d399" viewBox="0 0 10 10" refX="9" refY="5" markerWidth="7" markerHeight="7" orient="auto-start-reverse"><path d="M0,0 L10,5 L0,10 z" fill="#34d399"/></marker><marker id="arrow-fb7185" viewBox="0 0 10 10" refX="9" refY="5" markerWidth="7" markerHeight="7" orient="auto-start-reverse"><path d="M0,0 L10,5 L0,10 z" fill="#fb7185"/></marker><marker id="arrow-d97757" viewBox="0 0 10 10" refX="9" refY="5" markerWidth="7" markerHeight="7" orient="auto-start-reverse"><path d="M0,0 L10,5 L0,10 z" fill="#d97757"/></marker><marker id="arrow-94a3b8" viewBox="0 0 10 10" refX="9" refY="5" markerWidth="7" markerHeight="7" orient="auto-start-reverse"><path d="M0,0 L10,5 L0,10 z" fill="#94a3b8"/></marker></defs><rect width="1240" height="470" fill="url(#bg-canvas)"/><text x="50" y="52" class="h1">RELEASE PIPELINE</text><text x="50" y="78" class="legend">push a vX.Y.Z tag → CI runs the tests → a GitHub Release (generated notes) + npm publish (when NPM_TOKEN is set)</text><g class="card"><rect x="50" y="190" width="250" height="92" rx="12" fill="rgba(20, 9, 36, 0.62)" stroke="#a78bfa" stroke-width="1.5" stroke-opacity="0.6"/><g transform="translate(64 224.0) scale(1.0000)" fill="none" stroke="#a78bfa" stroke-width="2" stroke-linecap="round" stroke-linejoin="round"><line x1="6" y1="3" x2="6" y2="15"/><circle cx="18" cy="6" r="3"/><circle cx="6" cy="18" r="3"/><path d="M18 9a9 9 0 0 1-9 9"/></g><text x="175.0" y="232.0" class="card-title" text-anchor="middle">git tag vX.Y.Z</text><text x="175.0" y="249.0" class="card-sub" text-anchor="middle">+ push</text><g transform="translate(286, 204)"><circle r="4" fill="#a78bfa"><animate attributeName="r" values="3;6.5;3" dur="2.6s" repeatCount="indefinite"/><animate attributeName="opacity" values="1;0.4;1" dur="2.6s" repeatCount="indefinite"/></circle><circle r="3" fill="#a78bfa"/></g></g><g class="card"><rect x="390" y="190" width="240" height="92" rx="12" fill="rgba(20, 9, 36, 0.62)" stroke="#22d3ee" stroke-width="1.5" stroke-opacity="0.6"/><g transform="translate(404 224.0) scale(1.0000)" fill="none" stroke="#22d3ee" stroke-width="2" stroke-linecap="round" stroke-linejoin="round"><rect x="4" y="4" width="16" height="16" rx="2" ry="2"/><rect x="9" y="9" width="6" height="6"/><line x1="9" y1="1" x2="9" y2="4"/><line x1="15" y1="1" x2="15" y2="4"/><line x1="9" y1="20" x2="9" y2="23"/><line x1="15" y1="20" x2="15" y2="23"/><line x1="20" y1="9" x2="23" y2="9"/><line x1="20" y1="14" x2="23" y2="14"/><line x1="1" y1="9" x2="4" y2="9"/><line x1="1" y1="14" x2="4" y2="14"/></g><text x="510.0" y="232.0" class="card-title" text-anchor="middle">CI runs tests</text><text x="510.0" y="249.0" class="card-sub" text-anchor="middle">node 24 / 26</text><g transform="translate(616, 204)"><circle r="4" fill="#22d3ee"><animate attributeName="r" values="3;6.5;3" dur="2.6s" repeatCount="indefinite"/><animate attributeName="opacity" values="1;0.4;1" dur="2.6s" repeatCount="indefinite"/></circle><circle r="3" fill="#22d3ee"/></g></g><g class="card"><rect x="730" y="80" width="290" height="92" rx="12" fill="rgba(20, 9, 36, 0.62)" stroke="#e879f9" stroke-width="1.5" stroke-opacity="0.6"/><g transform="translate(744 114.0) scale(1.0000)" fill="none" stroke="#e879f9" stroke-width="2" stroke-linecap="round" stroke-linejoin="round"><path d="M20.59 13.41l-7.17 7.17a2 2 0 0 1-2.83 0L2 12V2h10l8.59 8.59a2 2 0 0 1 0 2.82z"/><line x1="7" y1="7" x2="7.01" y2="7"/></g><text x="875.0" y="122.0" class="card-title" text-anchor="middle">GitHub Release</text><text x="875.0" y="139.0" class="card-sub" text-anchor="middle">generated notes</text><g transform="translate(1006, 94)"><circle r="4" fill="#e879f9"><animate attributeName="r" values="3;6.5;3" dur="2.6s" repeatCount="indefinite"/><animate attributeName="opacity" values="1;0.4;1" dur="2.6s" repeatCount="indefinite"/></circle><circle r="3" fill="#e879f9"/></g></g><g class="card"><rect x="730" y="300" width="290" height="92" rx="12" fill="rgba(20, 9, 36, 0.62)" stroke="#34d399" stroke-width="1.5" stroke-opacity="0.6"/><g transform="translate(744 334.0) scale(1.0000)" fill="none" stroke="#34d399" stroke-width="2" stroke-linecap="round" stroke-linejoin="round"><line x1="16.5" y1="9.4" x2="7.5" y2="4.21"/><path d="M21 16V8a2 2 0 0 0-1-1.73l-7-4a2 2 0 0 0-2 0l-7 4A2 2 0 0 0 3 8v8a2 2 0 0 0 1 1.73l7 4a2 2 0 0 0 2 0l7-4A2 2 0 0 0 21 16z"/><polyline points="3.27 6.96 12 12.01 20.73 6.96"/><line x1="12" y1="22.08" x2="12" y2="12"/></g><text x="875.0" y="342.0" class="card-title" text-anchor="middle">npm publish</text><text x="875.0" y="359.0" class="card-sub" text-anchor="middle">when NPM_TOKEN is set</text><g transform="translate(1006, 314)"><circle r="4" fill="#34d399"><animate attributeName="r" values="3;6.5;3" dur="2.6s" repeatCount="indefinite"/><animate attributeName="opacity" values="1;0.4;1" dur="2.6s" repeatCount="indefinite"/></circle><circle r="3" fill="#34d399"/></g></g><path d="M 300 236 L 390 236" fill="none" stroke="#a78bfa" stroke-width="2" stroke-opacity="0.5" stroke-linecap="round"  marker-end="url(#arrow-a78bfa)"/><path d="M 300 236 L 390 236" fill="none" stroke="#a78bfa" stroke-width="2" stroke-linecap="round" stroke-dasharray="2 14" stroke-opacity="0.95"><animate attributeName="stroke-dashoffset" values="0;-32" dur="2.4s" repeatCount="indefinite"/></path><g transform="translate(345.0 223)"><rect x="-27.0" y="-11" width="54.0" height="22" rx="6" fill="rgba(10, 6, 18, 0.88)" stroke="#a78bfa" stroke-opacity="0.45"/><text x="0" y="4" class="edge-label" text-anchor="middle">push</text></g><path d="M 630 226 C 690 226, 690 126, 730 126" fill="none" stroke="#e879f9" stroke-width="2" stroke-opacity="0.5" stroke-linecap="round"  marker-end="url(#arrow-e879f9)"/><path d="M 630 226 C 690 226, 690 126, 730 126" fill="none" stroke="#e879f9" stroke-width="2" stroke-linecap="round" stroke-dasharray="2 14" stroke-opacity="0.95"><animate attributeName="stroke-dashoffset" values="0;-32" dur="2.4s" repeatCount="indefinite"/></path><g transform="translate(686 150)"><rect x="-31.1" y="-11" width="62.2" height="22" rx="6" fill="rgba(10, 6, 18, 0.88)" stroke="#e879f9" stroke-opacity="0.45"/><text x="0" y="4" class="edge-label" text-anchor="middle">release</text></g><path d="M 630 246 C 690 246, 690 346, 730 346" fill="none" stroke="#34d399" stroke-width="2" stroke-opacity="0.5" stroke-linecap="round"  marker-end="url(#arrow-34d399)"/><path d="M 630 246 C 690 246, 690 346, 730 346" fill="none" stroke="#34d399" stroke-width="2" stroke-linecap="round" stroke-dasharray="2 14" stroke-opacity="0.95"><animate attributeName="stroke-dashoffset" values="0;-32" dur="2.6s" repeatCount="indefinite"/></path><g transform="translate(686 318)"><rect x="-31.1" y="-11" width="62.2" height="22" rx="6" fill="rgba(10, 6, 18, 0.88)" stroke="#34d399" stroke-opacity="0.45"/><text x="0" y="4" class="edge-label" text-anchor="middle">publish</text></g><text x="1224" y="462" text-anchor="end" class="footer">assets/diagram-release.svg · regenerate via scripts/generate-doc-diagrams.py</text></svg>
