<svg xmlns="http://www.w3.org/2000/svg" viewBox="0 0 1160 760" role="img" aria-label="how a stage's tier is chosen: if it must decide how to change code use opus, else if it is search or mechanical use sonnet, else the tieBreaker (opus)"><style>
    .title      { font: 700 13px -apple-system, BlinkMacSystemFont, "Segoe UI", system-ui, sans-serif;
                  fill: #c4b5fd; letter-spacing: 0.09em; text-transform: uppercase; }
    .h1         { font: 700 20px -apple-system, system-ui, sans-serif; fill: #f5f3ff; letter-spacing: 0.14em; }
    .node-label { font: 600 13.5px ui-monospace, SFMono-Regular, Menlo, monospace; fill: #faf5ff; }
    .node-sub   { font: 500 10.5px -apple-system, system-ui, sans-serif; fill: #a78bbf; }
    .edge-label { font: 600 10px -apple-system, system-ui, sans-serif; fill: #f5f3ff; }
    .legend     { font: 500 12px -apple-system, system-ui, sans-serif; fill: #a78bbf; }
    .legend-h   { font: 700 12px -apple-system, system-ui, sans-serif; fill: #e9d5ff; letter-spacing: 0.06em; text-transform: uppercase; }
    .footer     { font: 500 10px ui-monospace, Menlo, monospace; fill: #6d5a8c; }

    @media (prefers-color-scheme: light) {
      .title      { fill: #6d28d9; }
      .h1         { fill: #4c1d95; }
      .node-label { fill: #2e1065; }
      .node-sub   { fill: #6d28d9; }
      .edge-label { fill: #2e1065; }
      .legend     { fill: #6d28d9; }
      .legend-h   { fill: #5b21b6; }
      .footer     { fill: #7c6aa0; }
    }

    .card-title { font: 600 14px ui-monospace, SFMono-Regular, Menlo, monospace; fill: #faf5ff; }
    .card-sub   { font: 500 11px -apple-system, system-ui, sans-serif; fill: #b9a7d6; }
    .card-step  { font: 700 11px ui-monospace, Menlo, monospace; fill: #c4b5fd; letter-spacing: 0.08em; }
    .diamond-t  { font: 700 13px -apple-system, system-ui, sans-serif; fill: #faf5ff; }
    .lane       { font: 700 13px ui-monospace, SFMono-Regular, Menlo, monospace; fill: #faf5ff; }
    .lane-sub   { font: 500 10.5px -apple-system, system-ui, sans-serif; fill: #b9a7d6; }
    .note       { font: 500 12px -apple-system, system-ui, sans-serif; fill: #f5f3ff; }

    @media (prefers-color-scheme: light) {
      .card-title { fill: #2e1065; }
      .card-sub   { fill: #6d28d9; }
      .card-step  { fill: #6d28d9; }
      .diamond-t  { fill: #2e1065; }
      .lane       { fill: #2e1065; }
      .lane-sub   { fill: #6d28d9; }
      .note       { fill: #2e1065; }
    }
</style><defs><radialGradient id="bg-canvas" cx="50%" cy="0%" r="120%"><stop offset="0%" stop-color="#1d1033"/><stop offset="100%" stop-color="#080510"/></radialGradient><marker id="arrow-a78bfa" viewBox="0 0 10 10" refX="9" refY="5" markerWidth="7" markerHeight="7" orient="auto-start-reverse"><path d="M0,0 L10,5 L0,10 z" fill="#a78bfa"/></marker><marker id="arrow-e879f9" viewBox="0 0 10 10" refX="9" refY="5" markerWidth="7" markerHeight="7" orient="auto-start-reverse"><path d="M0,0 L10,5 L0,10 z" fill="#e879f9"/></marker><marker id="arrow-f472b6" viewBox="0 0 10 10" refX="9" refY="5" markerWidth="7" markerHeight="7" orient="auto-start-reverse"><path d="M0,0 L10,5 L0,10 z" fill="#f472b6"/></marker><marker id="arrow-22d3ee" viewBox="0 0 10 10" refX="9" refY="5" markerWidth="7" markerHeight="7" orient="auto-start-reverse"><path d="M0,0 L10,5 L0,10 z" fill="#22d3ee"/></marker><marker id="arrow-c4b5fd" viewBox="0 0 10 10" refX="9" refY="5" markerWidth="7" markerHeight="7" orient="auto-start-reverse"><path d="M0,0 L10,5 L0,10 z" fill="#c4b5fd"/></marker><marker id="arrow-fbbf24" viewBox="0 0 10 10" refX="9" refY="5" markerWidth="7" markerHeight="7" orient="auto-start-reverse"><path d="M0,0 L10,5 L0,10 z" fill="#fbbf24"/></marker><marker id="arrow-34d399" viewBox="0 0 10 10" refX="9" refY="5" markerWidth="7" markerHeight="7" orient="auto-start-reverse"><path d="M0,0 L10,5 L0,10 z" fill="#34d399"/></marker><marker id="arrow-fb7185" viewBox="0 0 10 10" refX="9" refY="5" markerWidth="7" markerHeight="7" orient="auto-start-reverse"><path d="M0,0 L10,5 L0,10 z" fill="#fb7185"/></marker><marker id="arrow-d97757" viewBox="0 0 10 10" refX="9" refY="5" markerWidth="7" markerHeight="7" orient="auto-start-reverse"><path d="M0,0 L10,5 L0,10 z" fill="#d97757"/></marker><marker id="arrow-94a3b8" viewBox="0 0 10 10" refX="9" refY="5" markerWidth="7" markerHeight="7" orient="auto-start-reverse"><path d="M0,0 L10,5 L0,10 z" fill="#94a3b8"/></marker></defs><rect width="1160" height="760" fill="url(#bg-canvas)"/><text x="50" y="52" class="h1">HOW A STAGE'S TIER IS CHOSEN</text><text x="50" y="78" class="legend">decide how to change code → opus · search / mechanical → sonnet · when in doubt → the tieBreaker (opus)</text><g class="card"><rect x="340" y="96" width="260" height="68" rx="12" fill="rgba(20, 9, 36, 0.62)" stroke="#c4b5fd" stroke-width="1.5" stroke-opacity="0.6"/><g transform="translate(354 118.0) scale(1.0000)" fill="none" stroke="#c4b5fd" stroke-width="2" stroke-linecap="round" stroke-linejoin="round"><polyline points="16 18 22 12 16 6"/><polyline points="8 6 2 12 8 18"/></g><text x="470.0" y="134.5" class="card-title" text-anchor="middle">agent() stage</text><g transform="translate(586, 110)"><circle r="4" fill="#c4b5fd"><animate attributeName="r" values="3;6.5;3" dur="2.6s" repeatCount="indefinite"/><animate attributeName="opacity" values="1;0.4;1" dur="2.6s" repeatCount="indefinite"/></circle><circle r="3" fill="#c4b5fd"/></g></g><g class="decision"><polygon points="470,158 645,250 470,342 295,250" fill="rgba(20, 9, 36, 0.62)" stroke="#fbbf24" stroke-width="1.5" stroke-opacity="0.7"/><text x="470" y="237.0" class="diamond-t" text-anchor="middle">Must it DECIDE how</text><text x="470" y="254.0" class="diamond-t" text-anchor="middle">to write or change</text><text x="470" y="271.0" class="diamond-t" text-anchor="middle">code?</text></g><path d="M 470 164 L 470 158" fill="none" stroke="#c4b5fd" stroke-width="2" stroke-opacity="0.5" stroke-linecap="round"  marker-end="url(#arrow-c4b5fd)"/><path d="M 470 164 L 470 158" fill="none" stroke="#c4b5fd" stroke-width="2" stroke-linecap="round" stroke-dasharray="2 14" stroke-opacity="0.95"><animate attributeName="stroke-dashoffset" values="0;-32" dur="2.4s" repeatCount="indefinite"/></path><g class="card"><rect x="820" y="216" width="240" height="72" rx="12" fill="rgba(20, 9, 36, 0.62)" stroke="#a78bfa" stroke-width="1.5" stroke-opacity="0.6"/><g transform="translate(834 240.0) scale(1.0000)" fill="none" stroke="#a78bfa" stroke-width="2" stroke-linecap="round" stroke-linejoin="round"><rect x="4" y="4" width="16" height="16" rx="2" ry="2"/><rect x="9" y="9" width="6" height="6"/><line x1="9" y1="1" x2="9" y2="4"/><line x1="15" y1="1" x2="15" y2="4"/><line x1="9" y1="20" x2="9" y2="23"/><line x1="15" y1="20" x2="15" y2="23"/><line x1="20" y1="9" x2="23" y2="9"/><line x1="20" y1="14" x2="23" y2="14"/><line x1="1" y1="9" x2="4" y2="9"/><line x1="1" y1="14" x2="4" y2="14"/></g><text x="940.0" y="248.0" class="card-title" text-anchor="middle">opus tier</text><text x="940.0" y="265.0" class="card-sub" text-anchor="middle">model: opus · effort: xhigh</text><g transform="translate(1046, 230)"><circle r="4" fill="#a78bfa"><animate attributeName="r" values="3;6.5;3" dur="2.6s" repeatCount="indefinite"/><animate attributeName="opacity" values="1;0.4;1" dur="2.6s" repeatCount="indefinite"/></circle><circle r="3" fill="#a78bfa"/></g></g><path d="M 645 250 L 820 250" fill="none" stroke="#a78bfa" stroke-width="2" stroke-opacity="0.5" stroke-linecap="round"  marker-end="url(#arrow-a78bfa)"/><path d="M 645 250 L 820 250" fill="none" stroke="#a78bfa" stroke-width="2" stroke-linecap="round" stroke-dasharray="2 14" stroke-opacity="0.95"><animate attributeName="stroke-dashoffset" values="0;-32" dur="2.4s" repeatCount="indefinite"/></path><g transform="translate(732.5 237)"><rect x="-27.0" y="-11" width="54.0" height="22" rx="6" fill="rgba(10, 6, 18, 0.88)" stroke="#a78bfa" stroke-opacity="0.45"/><text x="0" y="4" class="edge-label" text-anchor="middle">yes</text></g><g class="decision"><polygon points="470,402 660,500 470,598 280,500" fill="rgba(20, 9, 36, 0.62)" stroke="#fbbf24" stroke-width="1.5" stroke-opacity="0.7"/><text x="470" y="478.5" class="diamond-t" text-anchor="middle">Search / collection /</text><text x="470" y="495.5" class="diamond-t" text-anchor="middle">formatting, or a</text><text x="470" y="512.5" class="diamond-t" text-anchor="middle">pre-planned mechanical</text><text x="470" y="529.5" class="diamond-t" text-anchor="middle">edit?</text></g><path d="M 470 342 L 470 402" fill="none" stroke="#fbbf24" stroke-width="2" stroke-opacity="0.5" stroke-linecap="round"  marker-end="url(#arrow-fbbf24)"/><path d="M 470 342 L 470 402" fill="none" stroke="#fbbf24" stroke-width="2" stroke-linecap="round" stroke-dasharray="2 14" stroke-opacity="0.95"><animate attributeName="stroke-dashoffset" values="0;-32" dur="2.4s" repeatCount="indefinite"/></path><g transform="translate(470 372.0)"><rect x="-27.0" y="-11" width="54.0" height="22" rx="6" fill="rgba(10, 6, 18, 0.88)" stroke="#fbbf24" stroke-opacity="0.45"/><text x="0" y="4" class="edge-label" text-anchor="middle">no</text></g><g class="card"><rect x="80" y="466" width="240" height="72" rx="12" fill="rgba(20, 9, 36, 0.62)" stroke="#22d3ee" stroke-width="1.5" stroke-opacity="0.6"/><g transform="translate(94 490.0) scale(1.0000)" fill="none" stroke="#22d3ee" stroke-width="2" stroke-linecap="round" stroke-linejoin="round"><polyline points="22 12 18 12 15 21 9 3 6 12 2 12"/></g><text x="200.0" y="498.0" class="card-title" text-anchor="middle">sonnet tier</text><text x="200.0" y="515.0" class="card-sub" text-anchor="middle">model: sonnet · effort: high</text><g transform="translate(306, 480)"><circle r="4" fill="#22d3ee"><animate attributeName="r" values="3;6.5;3" dur="2.6s" repeatCount="indefinite"/><animate attributeName="opacity" values="1;0.4;1" dur="2.6s" repeatCount="indefinite"/></circle><circle r="3" fill="#22d3ee"/></g></g><path d="M 280 500 L 320 500" fill="none" stroke="#22d3ee" stroke-width="2" stroke-opacity="0.5" stroke-linecap="round"  marker-end="url(#arrow-22d3ee)"/><path d="M 280 500 L 320 500" fill="none" stroke="#22d3ee" stroke-width="2" stroke-linecap="round" stroke-dasharray="2 14" stroke-opacity="0.95"><animate attributeName="stroke-dashoffset" values="0;-32" dur="2.4s" repeatCount="indefinite"/></path><g transform="translate(300.0 487)"><rect x="-27.0" y="-11" width="54.0" height="22" rx="6" fill="rgba(10, 6, 18, 0.88)" stroke="#22d3ee" stroke-opacity="0.45"/><text x="0" y="4" class="edge-label" text-anchor="middle">yes</text></g><g class="card"><rect x="820" y="466" width="260" height="72" rx="12" fill="rgba(20, 9, 36, 0.62)" stroke="#c4b5fd" stroke-width="1.5" stroke-opacity="0.6"/><g transform="translate(834 490.0) scale(1.0000)" fill="none" stroke="#c4b5fd" stroke-width="2" stroke-linecap="round" stroke-linejoin="round"><line x1="4" y1="21" x2="4" y2="14"/><line x1="4" y1="10" x2="4" y2="3"/><line x1="12" y1="21" x2="12" y2="12"/><line x1="12" y1="8" x2="12" y2="3"/><line x1="20" y1="21" x2="20" y2="16"/><line x1="20" y1="12" x2="20" y2="3"/><line x1="1" y1="14" x2="7" y2="14"/><line x1="9" y1="8" x2="15" y2="8"/><line x1="17" y1="16" x2="23" y2="16"/></g><text x="950.0" y="498.0" class="card-title" text-anchor="middle">tieBreaker</text><text x="950.0" y="515.0" class="card-sub" text-anchor="middle">default: opus</text><g transform="translate(1066, 480)"><circle r="4" fill="#c4b5fd"><animate attributeName="r" values="3;6.5;3" dur="2.6s" repeatCount="indefinite"/><animate attributeName="opacity" values="1;0.4;1" dur="2.6s" repeatCount="indefinite"/></circle><circle r="3" fill="#c4b5fd"/></g></g><path d="M 660 500 L 820 500" fill="none" stroke="#c4b5fd" stroke-width="2" stroke-opacity="0.5" stroke-linecap="round"  marker-end="url(#arrow-c4b5fd)"/><path d="M 660 500 L 820 500" fill="none" stroke="#c4b5fd" stroke-width="2" stroke-linecap="round" stroke-dasharray="2 14" stroke-opacity="0.95"><animate attributeName="stroke-dashoffset" values="0;-32" dur="2.4s" repeatCount="indefinite"/></path><g transform="translate(740.0 487)"><rect x="-27.8" y="-11" width="55.6" height="22" rx="6" fill="rgba(10, 6, 18, 0.88)" stroke="#c4b5fd" stroke-opacity="0.45"/><text x="0" y="4" class="edge-label" text-anchor="middle">unsure</text></g><g class="card"><rect x="190" y="660" width="560" height="72" rx="12" fill="rgba(20, 9, 36, 0.62)" stroke="#34d399" stroke-width="1.5" stroke-opacity="0.6"/><g transform="translate(204 684.0) scale(1.0000)" fill="none" stroke="#34d399" stroke-width="2" stroke-linecap="round" stroke-linejoin="round"><line x1="4" y1="21" x2="4" y2="14"/><line x1="4" y1="10" x2="4" y2="3"/><line x1="12" y1="21" x2="12" y2="12"/><line x1="12" y1="8" x2="12" y2="3"/><line x1="20" y1="21" x2="20" y2="16"/><line x1="20" y1="12" x2="20" y2="3"/><line x1="1" y1="14" x2="7" y2="14"/><line x1="9" y1="8" x2="15" y2="8"/><line x1="17" y1="16" x2="23" y2="16"/></g><text x="470.0" y="692.0" class="card-title" text-anchor="middle">pick the lowest effort that fits</text><text x="470.0" y="709.0" class="card-sub" text-anchor="middle">capped by the model</text><g transform="translate(736, 674)"><circle r="4" fill="#34d399"><animate attributeName="r" values="3;6.5;3" dur="2.6s" repeatCount="indefinite"/><animate attributeName="opacity" values="1;0.4;1" dur="2.6s" repeatCount="indefinite"/></circle><circle r="3" fill="#34d399"/></g></g><path d="M 940 288 C 940 600, 600 600, 520 656" fill="none" stroke="#a78bfa" stroke-width="2" stroke-opacity="0.5" stroke-linecap="round"  marker-end="url(#arrow-a78bfa)"/><path d="M 940 288 C 940 600, 600 600, 520 656" fill="none" stroke="#a78bfa" stroke-width="2" stroke-linecap="round" stroke-dasharray="2 14" stroke-opacity="0.95"><animate attributeName="stroke-dashoffset" values="0;-32" dur="2.8s" repeatCount="indefinite"/></path><path d="M 200 538 C 200 620, 360 640, 420 656" fill="none" stroke="#22d3ee" stroke-width="2" stroke-opacity="0.5" stroke-linecap="round"  marker-end="url(#arrow-22d3ee)"/><path d="M 200 538 C 200 620, 360 640, 420 656" fill="none" stroke="#22d3ee" stroke-width="2" stroke-linecap="round" stroke-dasharray="2 14" stroke-opacity="0.95"><animate attributeName="stroke-dashoffset" values="0;-32" dur="2.8s" repeatCount="indefinite"/></path><path d="M 950 538 C 950 620, 640 645, 560 656" fill="none" stroke="#c4b5fd" stroke-width="2" stroke-opacity="0.5" stroke-linecap="round"  marker-end="url(#arrow-c4b5fd)"/><path d="M 950 538 C 950 620, 640 645, 560 656" fill="none" stroke="#c4b5fd" stroke-width="2" stroke-linecap="round" stroke-dasharray="2 14" stroke-opacity="0.95"><animate attributeName="stroke-dashoffset" values="0;-32" dur="3.0s" repeatCount="indefinite"/></path><text x="1144" y="752" text-anchor="end" class="footer">assets/diagram-policy-decision.svg · regenerate via scripts/generate-doc-diagrams.py</text></svg>
