<svg xmlns="http://www.w3.org/2000/svg" viewBox="0 0 1460 500" role="img" aria-label="the ultracode cost trap: ultracode forces Opus, the workflow fans out, and unpinned stages inherit Opus by accident"><style>
    .title      { font: 700 13px -apple-system, BlinkMacSystemFont, "Segoe UI", system-ui, sans-serif;
                  fill: #c4b5fd; letter-spacing: 0.09em; text-transform: uppercase; }
    .h1         { font: 700 20px -apple-system, system-ui, sans-serif; fill: #f5f3ff; letter-spacing: 0.14em; }
    .node-label { font: 600 13.5px ui-monospace, SFMono-Regular, Menlo, monospace; fill: #faf5ff; }
    .node-sub   { font: 500 10.5px -apple-system, system-ui, sans-serif; fill: #a78bbf; }
    .edge-label { font: 600 10px -apple-system, system-ui, sans-serif; fill: #f5f3ff; }
    .legend     { font: 500 12px -apple-system, system-ui, sans-serif; fill: #a78bbf; }
    .legend-h   { font: 700 12px -apple-system, system-ui, sans-serif; fill: #e9d5ff; letter-spacing: 0.06em; text-transform: uppercase; }
    .footer     { font: 500 10px ui-monospace, Menlo, monospace; fill: #6d5a8c; }

    @media (prefers-color-scheme: light) {
      .title      { fill: #6d28d9; }
      .h1         { fill: #4c1d95; }
      .node-label { fill: #2e1065; }
      .node-sub   { fill: #6d28d9; }
      .edge-label { fill: #2e1065; }
      .legend     { fill: #6d28d9; }
      .legend-h   { fill: #5b21b6; }
      .footer     { fill: #7c6aa0; }
    }

    .card-title { font: 600 14px ui-monospace, SFMono-Regular, Menlo, monospace; fill: #faf5ff; }
    .card-sub   { font: 500 11px -apple-system, system-ui, sans-serif; fill: #b9a7d6; }
    .card-step  { font: 700 11px ui-monospace, Menlo, monospace; fill: #c4b5fd; letter-spacing: 0.08em; }
    .diamond-t  { font: 700 13px -apple-system, system-ui, sans-serif; fill: #faf5ff; }
    .lane       { font: 700 13px ui-monospace, SFMono-Regular, Menlo, monospace; fill: #faf5ff; }
    .lane-sub   { font: 500 10.5px -apple-system, system-ui, sans-serif; fill: #b9a7d6; }
    .note       { font: 500 12px -apple-system, system-ui, sans-serif; fill: #f5f3ff; }

    @media (prefers-color-scheme: light) {
      .card-title { fill: #2e1065; }
      .card-sub   { fill: #6d28d9; }
      .card-step  { fill: #6d28d9; }
      .diamond-t  { fill: #2e1065; }
      .lane       { fill: #2e1065; }
      .lane-sub   { fill: #6d28d9; }
      .note       { fill: #2e1065; }
    }
</style><defs><radialGradient id="bg-canvas" cx="50%" cy="0%" r="120%"><stop offset="0%" stop-color="#1d1033"/><stop offset="100%" stop-color="#080510"/></radialGradient><marker id="arrow-a78bfa" viewBox="0 0 10 10" refX="9" refY="5" markerWidth="7" markerHeight="7" orient="auto-start-reverse"><path d="M0,0 L10,5 L0,10 z" fill="#a78bfa"/></marker><marker id="arrow-e879f9" viewBox="0 0 10 10" refX="9" refY="5" markerWidth="7" markerHeight="7" orient="auto-start-reverse"><path d="M0,0 L10,5 L0,10 z" fill="#e879f9"/></marker><marker id="arrow-f472b6" viewBox="0 0 10 10" refX="9" refY="5" markerWidth="7" markerHeight="7" orient="auto-start-reverse"><path d="M0,0 L10,5 L0,10 z" fill="#f472b6"/></marker><marker id="arrow-22d3ee" viewBox="0 0 10 10" refX="9" refY="5" markerWidth="7" markerHeight="7" orient="auto-start-reverse"><path d="M0,0 L10,5 L0,10 z" fill="#22d3ee"/></marker><marker id="arrow-c4b5fd" viewBox="0 0 10 10" refX="9" refY="5" markerWidth="7" markerHeight="7" orient="auto-start-reverse"><path d="M0,0 L10,5 L0,10 z" fill="#c4b5fd"/></marker><marker id="arrow-fbbf24" viewBox="0 0 10 10" refX="9" refY="5" markerWidth="7" markerHeight="7" orient="auto-start-reverse"><path d="M0,0 L10,5 L0,10 z" fill="#fbbf24"/></marker><marker id="arrow-34d399" viewBox="0 0 10 10" refX="9" refY="5" markerWidth="7" markerHeight="7" orient="auto-start-reverse"><path d="M0,0 L10,5 L0,10 z" fill="#34d399"/></marker><marker id="arrow-fb7185" viewBox="0 0 10 10" refX="9" refY="5" markerWidth="7" markerHeight="7" orient="auto-start-reverse"><path d="M0,0 L10,5 L0,10 z" fill="#fb7185"/></marker><marker id="arrow-d97757" viewBox="0 0 10 10" refX="9" refY="5" markerWidth="7" markerHeight="7" orient="auto-start-reverse"><path d="M0,0 L10,5 L0,10 z" fill="#d97757"/></marker><marker id="arrow-94a3b8" viewBox="0 0 10 10" refX="9" refY="5" markerWidth="7" markerHeight="7" orient="auto-start-reverse"><path d="M0,0 L10,5 L0,10 z" fill="#94a3b8"/></marker></defs><rect width="1460" height="500" fill="url(#bg-canvas)"/><text x="50" y="52" class="h1">THE ULTRACODE COST TRAP</text><text x="50" y="78" class="legend">ultracode on → session forced to Opus (xhigh) → workflow fans out → unpinned stages inherit Opus → the whole fan-out runs on Opus by accident</text><g class="card"><rect x="50" y="130" width="210" height="108" rx="12" fill="rgba(20, 9, 36, 0.62)" stroke="#a78bfa" stroke-width="1.5" stroke-opacity="0.6"/><g transform="translate(64 172.0) scale(1.0000)" fill="none" stroke="#a78bfa" stroke-width="2" stroke-linecap="round" stroke-linejoin="round"><polygon points="5 3 19 12 5 21 5 3"/></g><text x="155.0" y="180.0" class="card-title" text-anchor="middle">ultracode on</text><text x="155.0" y="197.0" class="card-sub" text-anchor="middle">xhigh + dynamic workflows</text><g transform="translate(246, 144)"><circle r="4" fill="#a78bfa"><animate attributeName="r" values="3;6.5;3" dur="2.6s" repeatCount="indefinite"/><animate attributeName="opacity" values="1;0.4;1" dur="2.6s" repeatCount="indefinite"/></circle><circle r="3" fill="#a78bfa"/></g></g><g class="card"><rect x="288" y="130" width="210" height="108" rx="12" fill="rgba(20, 9, 36, 0.62)" stroke="#e879f9" stroke-width="1.5" stroke-opacity="0.6"/><g transform="translate(302 172.0) scale(1.0000)" fill="none" stroke="#e879f9" stroke-width="2" stroke-linecap="round" stroke-linejoin="round"><rect x="4" y="4" width="16" height="16" rx="2" ry="2"/><rect x="9" y="9" width="6" height="6"/><line x1="9" y1="1" x2="9" y2="4"/><line x1="15" y1="1" x2="15" y2="4"/><line x1="9" y1="20" x2="9" y2="23"/><line x1="15" y1="20" x2="15" y2="23"/><line x1="20" y1="9" x2="23" y2="9"/><line x1="20" y1="14" x2="23" y2="14"/><line x1="1" y1="9" x2="4" y2="9"/><line x1="1" y1="14" x2="4" y2="14"/></g><text x="393.0" y="180.0" class="card-title" text-anchor="middle">session → Opus</text><text x="393.0" y="197.0" class="card-sub" text-anchor="middle">xhigh is Opus-only</text><g transform="translate(484, 144)"><circle r="4" fill="#e879f9"><animate attributeName="r" values="3;6.5;3" dur="2.6s" repeatCount="indefinite"/><animate attributeName="opacity" values="1;0.4;1" dur="2.6s" repeatCount="indefinite"/></circle><circle r="3" fill="#e879f9"/></g></g><g class="card"><rect x="526" y="130" width="210" height="108" rx="12" fill="rgba(20, 9, 36, 0.62)" stroke="#f472b6" stroke-width="1.5" stroke-opacity="0.6"/><g transform="translate(540 172.0) scale(1.0000)" fill="none" stroke="#f472b6" stroke-width="2" stroke-linecap="round" stroke-linejoin="round"><line x1="6" y1="3" x2="6" y2="15"/><circle cx="18" cy="6" r="3"/><circle cx="6" cy="18" r="3"/><path d="M18 9a9 9 0 0 1-9 9"/></g><text x="631.0" y="180.0" class="card-title" text-anchor="middle">workflow fans out</text><text x="631.0" y="197.0" class="card-sub" text-anchor="middle">dozens of subagents</text><g transform="translate(722, 144)"><circle r="4" fill="#f472b6"><animate attributeName="r" values="3;6.5;3" dur="2.6s" repeatCount="indefinite"/><animate attributeName="opacity" values="1;0.4;1" dur="2.6s" repeatCount="indefinite"/></circle><circle r="3" fill="#f472b6"/></g></g><g class="card"><rect x="764" y="130" width="210" height="108" rx="12" fill="rgba(20, 9, 36, 0.62)" stroke="#fbbf24" stroke-width="1.5" stroke-opacity="0.6"/><g transform="translate(778 172.0) scale(1.0000)" fill="none" stroke="#fbbf24" stroke-width="2" stroke-linecap="round" stroke-linejoin="round"><path d="M10.29 3.86L1.82 18a2 2 0 0 0 1.71 3h16.94a2 2 0 0 0 1.71-3L13.71 3.86a2 2 0 0 0-3.42 0z"/><line x1="12" y1="9" x2="12" y2="13"/><line x1="12" y1="17" x2="12.01" y2="17"/></g><text x="869.0" y="180.0" class="card-title" text-anchor="middle">stages inherit</text><text x="869.0" y="197.0" class="card-sub" text-anchor="middle">the session model</text><g transform="translate(960, 144)"><circle r="4" fill="#fbbf24"><animate attributeName="r" values="3;6.5;3" dur="2.6s" repeatCount="indefinite"/><animate attributeName="opacity" values="1;0.4;1" dur="2.6s" repeatCount="indefinite"/></circle><circle r="3" fill="#fbbf24"/></g></g><g class="card"><rect x="1002" y="130" width="210" height="108" rx="12" fill="rgba(20, 9, 36, 0.62)" stroke="#fb7185" stroke-width="1.5" stroke-opacity="0.6"/><g transform="translate(1016 172.0) scale(1.0000)" fill="none" stroke="#fb7185" stroke-width="2" stroke-linecap="round" stroke-linejoin="round"><path d="M10.29 3.86L1.82 18a2 2 0 0 0 1.71 3h16.94a2 2 0 0 0 1.71-3L13.71 3.86a2 2 0 0 0-3.42 0z"/><line x1="12" y1="9" x2="12" y2="13"/><line x1="12" y1="17" x2="12.01" y2="17"/></g><text x="1107.0" y="180.0" class="card-title" text-anchor="middle">all Opus</text><text x="1107.0" y="197.0" class="card-sub" text-anchor="middle">by accident</text><g transform="translate(1198, 144)"><circle r="4" fill="#fb7185"><animate attributeName="r" values="3;6.5;3" dur="2.6s" repeatCount="indefinite"/><animate attributeName="opacity" values="1;0.4;1" dur="2.6s" repeatCount="indefinite"/></circle><circle r="3" fill="#fb7185"/></g></g><g class="card"><rect x="1240" y="130" width="210" height="108" rx="12" fill="rgba(20, 9, 36, 0.62)" stroke="#34d399" stroke-width="1.5" stroke-opacity="0.6"/><g transform="translate(1254 172.0) scale(1.0000)" fill="none" stroke="#34d399" stroke-width="2" stroke-linecap="round" stroke-linejoin="round"><path d="M22 11.08V12a10 10 0 1 1-5.93-9.14"/><polyline points="22 4 12 14.01 9 11.01"/></g><text x="1345.0" y="180.0" class="card-title" text-anchor="middle">ultracost</text><text x="1345.0" y="197.0" class="card-sub" text-anchor="middle">pin per stage, then verify</text><g transform="translate(1436, 144)"><circle r="4" fill="#34d399"><animate attributeName="r" values="3;6.5;3" dur="2.6s" repeatCount="indefinite"/><animate attributeName="opacity" values="1;0.4;1" dur="2.6s" repeatCount="indefinite"/></circle><circle r="3" fill="#34d399"/></g></g><path d="M 260 184.0 L 288 184.0" fill="none" stroke="#a78bfa" stroke-width="2" stroke-opacity="0.5" stroke-linecap="round"  marker-end="url(#arrow-a78bfa)"/><path d="M 260 184.0 L 288 184.0" fill="none" stroke="#a78bfa" stroke-width="2" stroke-linecap="round" stroke-dasharray="2 14" stroke-opacity="0.95"><animate attributeName="stroke-dashoffset" values="0;-32" dur="2.4s" repeatCount="indefinite"/></path><g transform="translate(274.0 171.0)"><rect x="-27.8" y="-11" width="55.6" height="22" rx="6" fill="rgba(10, 6, 18, 0.88)" stroke="#a78bfa" stroke-opacity="0.45"/><text x="0" y="4" class="edge-label" text-anchor="middle">forces</text></g><path d="M 498 184.0 L 526 184.0" fill="none" stroke="#e879f9" stroke-width="2" stroke-opacity="0.5" stroke-linecap="round"  marker-end="url(#arrow-e879f9)"/><path d="M 498 184.0 L 526 184.0" fill="none" stroke="#e879f9" stroke-width="2" stroke-linecap="round" stroke-dasharray="2 14" stroke-opacity="0.95"><animate attributeName="stroke-dashoffset" values="0;-32" dur="2.4s" repeatCount="indefinite"/></path><g transform="translate(512.0 171.0)"><rect x="-27.8" y="-11" width="55.6" height="22" rx="6" fill="rgba(10, 6, 18, 0.88)" stroke="#e879f9" stroke-opacity="0.45"/><text x="0" y="4" class="edge-label" text-anchor="middle">spawns</text></g><path d="M 736 184.0 L 764 184.0" fill="none" stroke="#f472b6" stroke-width="2" stroke-opacity="0.5" stroke-linecap="round"  marker-end="url(#arrow-f472b6)"/><path d="M 736 184.0 L 764 184.0" fill="none" stroke="#f472b6" stroke-width="2" stroke-linecap="round" stroke-dasharray="2 14" stroke-opacity="0.95"><animate attributeName="stroke-dashoffset" values="0;-32" dur="2.4s" repeatCount="indefinite"/></path><g transform="translate(750.0 171.0)"><rect x="-27.8" y="-11" width="55.6" height="22" rx="6" fill="rgba(10, 6, 18, 0.88)" stroke="#f472b6" stroke-opacity="0.45"/><text x="0" y="4" class="edge-label" text-anchor="middle">no pin</text></g><path d="M 974 184.0 L 1002 184.0" fill="none" stroke="#fbbf24" stroke-width="2" stroke-opacity="0.5" stroke-linecap="round"  marker-end="url(#arrow-fbbf24)"/><path d="M 974 184.0 L 1002 184.0" fill="none" stroke="#fbbf24" stroke-width="2" stroke-linecap="round" stroke-dasharray="2 14" stroke-opacity="0.95"><animate attributeName="stroke-dashoffset" values="0;-32" dur="2.4s" repeatCount="indefinite"/></path><g transform="translate(988.0 171.0)"><rect x="-27.8" y="-11" width="55.6" height="22" rx="6" fill="rgba(10, 6, 18, 0.88)" stroke="#fbbf24" stroke-opacity="0.45"/><text x="0" y="4" class="edge-label" text-anchor="middle">result</text></g><path d="M 1212 184.0 L 1240 184.0" fill="none" stroke="#fb7185" stroke-width="2" stroke-opacity="0.5" stroke-linecap="round"  marker-end="url(#arrow-fb7185)"/><path d="M 1212 184.0 L 1240 184.0" fill="none" stroke="#fb7185" stroke-width="2" stroke-linecap="round" stroke-dasharray="2 14" stroke-opacity="0.95"><animate attributeName="stroke-dashoffset" values="0;-32" dur="2.4s" repeatCount="indefinite"/></path><g transform="translate(1226.0 171.0)"><rect x="-27.0" y="-11" width="54.0" height="22" rx="6" fill="rgba(10, 6, 18, 0.88)" stroke="#fb7185" stroke-opacity="0.45"/><text x="0" y="4" class="edge-label" text-anchor="middle">fix</text></g><g class="card"><rect x="690" y="320" width="290" height="84" rx="12" fill="rgba(20, 9, 36, 0.62)" stroke="#94a3b8" stroke-width="1.5" stroke-opacity="0.6"/><g transform="translate(704 350.0) scale(1.0000)" fill="none" stroke="#94a3b8" stroke-width="2" stroke-linecap="round" stroke-linejoin="round"><path d="M14 2H6a2 2 0 0 0-2 2v16a2 2 0 0 0 2 2h12a2 2 0 0 0 2-2V8z"/><polyline points="14 2 14 8 20 8"/><line x1="16" y1="13" x2="8" y2="13"/><line x1="16" y1="17" x2="8" y2="17"/><polyline points="10 9 9 9 8 9"/></g><text x="835.0" y="358.0" class="card-title" text-anchor="middle">built-in guidance</text><text x="835.0" y="375.0" class="card-sub" text-anchor="middle">omit the per-agent model</text><g transform="translate(966, 334)"><circle r="4" fill="#94a3b8"><animate attributeName="r" values="3;6.5;3" dur="2.6s" repeatCount="indefinite"/><animate attributeName="opacity" values="1;0.4;1" dur="2.6s" repeatCount="indefinite"/></circle><circle r="3" fill="#94a3b8"/></g></g><path d="M 835.0 320 C 835.0 280, 869.0 258, 869.0 238" fill="none" stroke="#94a3b8" stroke-width="2" stroke-opacity="0.5" stroke-linecap="round"  marker-end="url(#arrow-94a3b8)"/><path d="M 835.0 320 C 835.0 280, 869.0 258, 869.0 238" fill="none" stroke="#94a3b8" stroke-width="2" stroke-linecap="round" stroke-dasharray="2 14" stroke-opacity="0.95"><animate attributeName="stroke-dashoffset" values="0;-32" dur="2.8s" repeatCount="indefinite"/></path><g transform="translate(841.0 290)"><rect x="-31.1" y="-11" width="62.2" height="22" rx="6" fill="rgba(10, 6, 18, 0.88)" stroke="#94a3b8" stroke-opacity="0.45"/><text x="0" y="4" class="edge-label" text-anchor="middle">default</text></g><text x="1444" y="492" text-anchor="end" class="footer">assets/diagram-ultracode.svg · regenerate via scripts/generate-doc-diagrams.py</text></svg>
