<svg xmlns="http://www.w3.org/2000/svg" viewBox="0 0 1500 470" role="img" aria-label="a live ultracode run: policy injected, Claude pins every stage, the guard confirms, the gate hard-stops with the estimate, you approve, then the loop reconciles"><style>
    .title      { font: 700 13px -apple-system, BlinkMacSystemFont, "Segoe UI", system-ui, sans-serif;
                  fill: #c4b5fd; letter-spacing: 0.09em; text-transform: uppercase; }
    .h1         { font: 700 20px -apple-system, system-ui, sans-serif; fill: #f5f3ff; letter-spacing: 0.14em; }
    .node-label { font: 600 13.5px ui-monospace, SFMono-Regular, Menlo, monospace; fill: #faf5ff; }
    .node-sub   { font: 500 10.5px -apple-system, system-ui, sans-serif; fill: #a78bbf; }
    .edge-label { font: 600 10px -apple-system, system-ui, sans-serif; fill: #f5f3ff; }
    .legend     { font: 500 12px -apple-system, system-ui, sans-serif; fill: #a78bbf; }
    .legend-h   { font: 700 12px -apple-system, system-ui, sans-serif; fill: #e9d5ff; letter-spacing: 0.06em; text-transform: uppercase; }
    .footer     { font: 500 10px ui-monospace, Menlo, monospace; fill: #6d5a8c; }

    @media (prefers-color-scheme: light) {
      .title      { fill: #6d28d9; }
      .h1         { fill: #4c1d95; }
      .node-label { fill: #2e1065; }
      .node-sub   { fill: #6d28d9; }
      .edge-label { fill: #2e1065; }
      .legend     { fill: #6d28d9; }
      .legend-h   { fill: #5b21b6; }
      .footer     { fill: #7c6aa0; }
    }

    .card-title { font: 600 14px ui-monospace, SFMono-Regular, Menlo, monospace; fill: #faf5ff; }
    .card-sub   { font: 500 11px -apple-system, system-ui, sans-serif; fill: #b9a7d6; }
    .card-step  { font: 700 11px ui-monospace, Menlo, monospace; fill: #c4b5fd; letter-spacing: 0.08em; }
    .diamond-t  { font: 700 13px -apple-system, system-ui, sans-serif; fill: #faf5ff; }
    .lane       { font: 700 13px ui-monospace, SFMono-Regular, Menlo, monospace; fill: #faf5ff; }
    .lane-sub   { font: 500 10.5px -apple-system, system-ui, sans-serif; fill: #b9a7d6; }
    .note       { font: 500 12px -apple-system, system-ui, sans-serif; fill: #f5f3ff; }

    @media (prefers-color-scheme: light) {
      .card-title { fill: #2e1065; }
      .card-sub   { fill: #6d28d9; }
      .card-step  { fill: #6d28d9; }
      .diamond-t  { fill: #2e1065; }
      .lane       { fill: #2e1065; }
      .lane-sub   { fill: #6d28d9; }
      .note       { fill: #2e1065; }
    }
</style><defs><radialGradient id="bg-canvas" cx="50%" cy="0%" r="120%"><stop offset="0%" stop-color="#1d1033"/><stop offset="100%" stop-color="#080510"/></radialGradient><marker id="arrow-a78bfa" viewBox="0 0 10 10" refX="9" refY="5" markerWidth="7" markerHeight="7" orient="auto-start-reverse"><path d="M0,0 L10,5 L0,10 z" fill="#a78bfa"/></marker><marker id="arrow-e879f9" viewBox="0 0 10 10" refX="9" refY="5" markerWidth="7" markerHeight="7" orient="auto-start-reverse"><path d="M0,0 L10,5 L0,10 z" fill="#e879f9"/></marker><marker id="arrow-f472b6" viewBox="0 0 10 10" refX="9" refY="5" markerWidth="7" markerHeight="7" orient="auto-start-reverse"><path d="M0,0 L10,5 L0,10 z" fill="#f472b6"/></marker><marker id="arrow-22d3ee" viewBox="0 0 10 10" refX="9" refY="5" markerWidth="7" markerHeight="7" orient="auto-start-reverse"><path d="M0,0 L10,5 L0,10 z" fill="#22d3ee"/></marker><marker id="arrow-c4b5fd" viewBox="0 0 10 10" refX="9" refY="5" markerWidth="7" markerHeight="7" orient="auto-start-reverse"><path d="M0,0 L10,5 L0,10 z" fill="#c4b5fd"/></marker><marker id="arrow-fbbf24" viewBox="0 0 10 10" refX="9" refY="5" markerWidth="7" markerHeight="7" orient="auto-start-reverse"><path d="M0,0 L10,5 L0,10 z" fill="#fbbf24"/></marker><marker id="arrow-34d399" viewBox="0 0 10 10" refX="9" refY="5" markerWidth="7" markerHeight="7" orient="auto-start-reverse"><path d="M0,0 L10,5 L0,10 z" fill="#34d399"/></marker><marker id="arrow-fb7185" viewBox="0 0 10 10" refX="9" refY="5" markerWidth="7" markerHeight="7" orient="auto-start-reverse"><path d="M0,0 L10,5 L0,10 z" fill="#fb7185"/></marker><marker id="arrow-d97757" viewBox="0 0 10 10" refX="9" refY="5" markerWidth="7" markerHeight="7" orient="auto-start-reverse"><path d="M0,0 L10,5 L0,10 z" fill="#d97757"/></marker><marker id="arrow-94a3b8" viewBox="0 0 10 10" refX="9" refY="5" markerWidth="7" markerHeight="7" orient="auto-start-reverse"><path d="M0,0 L10,5 L0,10 z" fill="#94a3b8"/></marker></defs><rect width="1500" height="470" fill="url(#bg-canvas)"/><text x="50" y="52" class="h1">ULTRACOST ON A LIVE ULTRACODE RUN</text><text x="50" y="78" class="legend">SessionStart injects the policy → Claude authors a fully-pinned workflow → the guard confirms → the gate hard-stops with the estimate → Approve / Modify / Cancel → the closed loop</text><g class="card"><rect x="50" y="150" width="222" height="120" rx="12" fill="rgba(20, 9, 36, 0.62)" stroke="#c4b5fd" stroke-width="1.5" stroke-opacity="0.6"/><g transform="translate(64 198.0) scale(1.0000)" fill="none" stroke="#c4b5fd" stroke-width="2" stroke-linecap="round" stroke-linejoin="round"><path d="M14 2H6a2 2 0 0 0-2 2v16a2 2 0 0 0 2 2h12a2 2 0 0 0 2-2V8z"/><polyline points="14 2 14 8 20 8"/><line x1="16" y1="13" x2="8" y2="13"/><line x1="16" y1="17" x2="8" y2="17"/><polyline points="10 9 9 9 8 9"/></g><text x="161.0" y="197.5" class="card-step" text-anchor="middle">1 · INJECT</text><text x="161.0" y="214.5" class="card-title" text-anchor="middle">SessionStart</text><text x="161.0" y="231.5" class="card-sub" text-anchor="middle">injects the policy</text><g transform="translate(258, 164)"><circle r="4" fill="#c4b5fd"><animate attributeName="r" values="3;6.5;3" dur="2.6s" repeatCount="indefinite"/><animate attributeName="opacity" values="1;0.4;1" dur="2.6s" repeatCount="indefinite"/></circle><circle r="3" fill="#c4b5fd"/></g></g><g class="card"><rect x="296" y="150" width="222" height="120" rx="12" fill="rgba(20, 9, 36, 0.62)" stroke="#34d399" stroke-width="1.5" stroke-opacity="0.6"/><g transform="translate(310 198.0) scale(1.0000)" fill="none" stroke="#34d399" stroke-width="2" stroke-linecap="round" stroke-linejoin="round"><polyline points="16 18 22 12 16 6"/><polyline points="8 6 2 12 8 18"/></g><text x="407.0" y="197.5" class="card-step" text-anchor="middle">AUTHOR</text><text x="407.0" y="214.5" class="card-title" text-anchor="middle">Claude pins</text><text x="407.0" y="231.5" class="card-sub" text-anchor="middle">every agent() stage</text><g transform="translate(504, 164)"><circle r="4" fill="#34d399"><animate attributeName="r" values="3;6.5;3" dur="2.6s" repeatCount="indefinite"/><animate attributeName="opacity" values="1;0.4;1" dur="2.6s" repeatCount="indefinite"/></circle><circle r="3" fill="#34d399"/></g></g><g class="card"><rect x="542" y="150" width="222" height="120" rx="12" fill="rgba(20, 9, 36, 0.62)" stroke="#f472b6" stroke-width="1.5" stroke-opacity="0.6"/><g transform="translate(556 198.0) scale(1.0000)" fill="none" stroke="#f472b6" stroke-width="2" stroke-linecap="round" stroke-linejoin="round"><path d="M12 22s8-4 8-10V5l-8-3-8 3v7c0 6 8 10 8 10z"/></g><text x="653.0" y="197.5" class="card-step" text-anchor="middle">2 · GUARD</text><text x="653.0" y="214.5" class="card-title" text-anchor="middle">guard confirms</text><text x="653.0" y="231.5" class="card-sub" text-anchor="middle">every stage pins a model</text><g transform="translate(750, 164)"><circle r="4" fill="#f472b6"><animate attributeName="r" values="3;6.5;3" dur="2.6s" repeatCount="indefinite"/><animate attributeName="opacity" values="1;0.4;1" dur="2.6s" repeatCount="indefinite"/></circle><circle r="3" fill="#f472b6"/></g></g><g class="card"><rect x="788" y="150" width="222" height="120" rx="12" fill="rgba(20, 9, 36, 0.62)" stroke="#fbbf24" stroke-width="1.5" stroke-opacity="0.6"/><g transform="translate(802 198.0) scale(1.0000)" fill="none" stroke="#fbbf24" stroke-width="2" stroke-linecap="round" stroke-linejoin="round"><path d="M10.29 3.86L1.82 18a2 2 0 0 0 1.71 3h16.94a2 2 0 0 0 1.71-3L13.71 3.86a2 2 0 0 0-3.42 0z"/><line x1="12" y1="9" x2="12" y2="13"/><line x1="12" y1="17" x2="12.01" y2="17"/></g><text x="899.0" y="197.5" class="card-step" text-anchor="middle">3 · GATE</text><text x="899.0" y="214.5" class="card-title" text-anchor="middle">PreToolUse stops</text><text x="899.0" y="231.5" class="card-sub" text-anchor="middle">+ shows the estimate</text><g transform="translate(996, 164)"><circle r="4" fill="#fbbf24"><animate attributeName="r" values="3;6.5;3" dur="2.6s" repeatCount="indefinite"/><animate attributeName="opacity" values="1;0.4;1" dur="2.6s" repeatCount="indefinite"/></circle><circle r="3" fill="#fbbf24"/></g></g><g class="card"><rect x="1034" y="150" width="222" height="120" rx="12" fill="rgba(20, 9, 36, 0.62)" stroke="#22d3ee" stroke-width="1.5" stroke-opacity="0.6"/><g transform="translate(1048 198.0) scale(1.0000)" fill="none" stroke="#22d3ee" stroke-width="2" stroke-linecap="round" stroke-linejoin="round"><path d="M18 3a3 3 0 0 0-3 3v12a3 3 0 1 0 3-3H6a3 3 0 1 0 3 3V6a3 3 0 1 0-3 3h12a3 3 0 0 0 0-6z"/></g><text x="1145.0" y="197.5" class="card-step" text-anchor="middle">3 · CONFIRM</text><text x="1145.0" y="214.5" class="card-title" text-anchor="middle">Approve / Modify</text><text x="1145.0" y="231.5" class="card-sub" text-anchor="middle">/ Cancel · AskUserQuestion</text><g transform="translate(1242, 164)"><circle r="4" fill="#22d3ee"><animate attributeName="r" values="3;6.5;3" dur="2.6s" repeatCount="indefinite"/><animate attributeName="opacity" values="1;0.4;1" dur="2.6s" repeatCount="indefinite"/></circle><circle r="3" fill="#22d3ee"/></g></g><g class="card"><rect x="1280" y="150" width="222" height="120" rx="12" fill="rgba(20, 9, 36, 0.62)" stroke="#34d399" stroke-width="1.5" stroke-opacity="0.6"/><g transform="translate(1294 198.0) scale(1.0000)" fill="none" stroke="#34d399" stroke-width="2" stroke-linecap="round" stroke-linejoin="round"><polyline points="22 12 18 12 15 21 9 3 6 12 2 12"/></g><text x="1391.0" y="197.5" class="card-step" text-anchor="middle">4 · LOOP</text><text x="1391.0" y="214.5" class="card-title" text-anchor="middle">reconcile</text><text x="1391.0" y="231.5" class="card-sub" text-anchor="middle">calibrate · ledger</text><g transform="translate(1488, 164)"><circle r="4" fill="#34d399"><animate attributeName="r" values="3;6.5;3" dur="2.6s" repeatCount="indefinite"/><animate attributeName="opacity" values="1;0.4;1" dur="2.6s" repeatCount="indefinite"/></circle><circle r="3" fill="#34d399"/></g></g><path d="M 272 210.0 L 296 210.0" fill="none" stroke="#c4b5fd" stroke-width="2" stroke-opacity="0.5" stroke-linecap="round"  marker-end="url(#arrow-c4b5fd)"/><path d="M 272 210.0 L 296 210.0" fill="none" stroke="#c4b5fd" stroke-width="2" stroke-linecap="round" stroke-dasharray="2 14" stroke-opacity="0.95"><animate attributeName="stroke-dashoffset" values="0;-32" dur="2.4s" repeatCount="indefinite"/></path><g transform="translate(284.0 197.0)"><rect x="-31.1" y="-11" width="62.2" height="22" rx="6" fill="rgba(10, 6, 18, 0.88)" stroke="#c4b5fd" stroke-opacity="0.45"/><text x="0" y="4" class="edge-label" text-anchor="middle">authors</text></g><path d="M 518 210.0 L 542 210.0" fill="none" stroke="#34d399" stroke-width="2" stroke-opacity="0.5" stroke-linecap="round"  marker-end="url(#arrow-34d399)"/><path d="M 518 210.0 L 542 210.0" fill="none" stroke="#34d399" stroke-width="2" stroke-linecap="round" stroke-dasharray="2 14" stroke-opacity="0.95"><animate attributeName="stroke-dashoffset" values="0;-32" dur="2.4s" repeatCount="indefinite"/></path><g transform="translate(530.0 197.0)"><rect x="-27.0" y="-11" width="54.0" height="22" rx="6" fill="rgba(10, 6, 18, 0.88)" stroke="#34d399" stroke-opacity="0.45"/><text x="0" y="4" class="edge-label" text-anchor="middle">scan</text></g><path d="M 764 210.0 L 788 210.0" fill="none" stroke="#f472b6" stroke-width="2" stroke-opacity="0.5" stroke-linecap="round"  marker-end="url(#arrow-f472b6)"/><path d="M 764 210.0 L 788 210.0" fill="none" stroke="#f472b6" stroke-width="2" stroke-linecap="round" stroke-dasharray="2 14" stroke-opacity="0.95"><animate attributeName="stroke-dashoffset" values="0;-32" dur="2.4s" repeatCount="indefinite"/></path><g transform="translate(776.0 197.0)"><rect x="-27.8" y="-11" width="55.6" height="22" rx="6" fill="rgba(10, 6, 18, 0.88)" stroke="#f472b6" stroke-opacity="0.45"/><text x="0" y="4" class="edge-label" text-anchor="middle">launch</text></g><path d="M 1010 210.0 L 1034 210.0" fill="none" stroke="#fbbf24" stroke-width="2" stroke-opacity="0.5" stroke-linecap="round"  marker-end="url(#arrow-fbbf24)"/><path d="M 1010 210.0 L 1034 210.0" fill="none" stroke="#fbbf24" stroke-width="2" stroke-linecap="round" stroke-dasharray="2 14" stroke-opacity="0.95"><animate attributeName="stroke-dashoffset" values="0;-32" dur="2.4s" repeatCount="indefinite"/></path><g transform="translate(1022.0 197.0)"><rect x="-27.0" y="-11" width="54.0" height="22" rx="6" fill="rgba(10, 6, 18, 0.88)" stroke="#fbbf24" stroke-opacity="0.45"/><text x="0" y="4" class="edge-label" text-anchor="middle">ask</text></g><path d="M 1256 210.0 L 1280 210.0" fill="none" stroke="#22d3ee" stroke-width="2" stroke-opacity="0.5" stroke-linecap="round"  marker-end="url(#arrow-22d3ee)"/><path d="M 1256 210.0 L 1280 210.0" fill="none" stroke="#22d3ee" stroke-width="2" stroke-linecap="round" stroke-dasharray="2 14" stroke-opacity="0.95"><animate attributeName="stroke-dashoffset" values="0;-32" dur="2.4s" repeatCount="indefinite"/></path><g transform="translate(1268.0 197.0)"><rect x="-37.7" y="-11" width="75.4" height="22" rx="6" fill="rgba(10, 6, 18, 0.88)" stroke="#22d3ee" stroke-opacity="0.45"/><text x="0" y="4" class="edge-label" text-anchor="middle">after run</text></g><text x="1484" y="462" text-anchor="end" class="footer">assets/diagram-showcase.svg · regenerate via scripts/generate-doc-diagrams.py</text></svg>
